<svg width="1280" height="820" viewBox="0 0 1280 820" fill="none" xmlns="http://www.w3.org/2000/svg">
  <defs>
    <linearGradient id="legend-en" x1="0" y1="0" x2="220" y2="0" gradientUnits="userSpaceOnUse">
      <stop offset="0" stop-color="#EAF5F2"/>
      <stop offset="0.5" stop-color="#72C6B5"/>
      <stop offset="1" stop-color="#0F766E"/>
    </linearGradient>
  </defs>

  <rect width="1280" height="820" fill="#F6F2EA"/>
  <rect x="28" y="28" width="1224" height="764" rx="28" fill="#FCFAF6" stroke="#E7DECF" stroke-width="2"/>

  <text x="72" y="92" fill="#1F2937" font-family="Segoe UI, Arial, sans-serif" font-size="34" font-weight="700">Literature Review Matrix Example</text>
  <text x="72" y="126" fill="#5B6471" font-family="Segoe UI, Arial, sans-serif" font-size="18">README usage example for the 40-paper search -&gt; 1560-pair screening workflow</text>

  <rect x="72" y="156" width="164" height="78" rx="20" fill="#FFFFFF" stroke="#E7DECF"/>
  <text x="96" y="188" fill="#0F766E" font-family="Segoe UI, Arial, sans-serif" font-size="16" font-weight="600">Paper pool</text>
  <text x="96" y="220" fill="#1F2937" font-family="Segoe UI, Arial, sans-serif" font-size="28" font-weight="700">40 papers</text>

  <rect x="252" y="156" width="164" height="78" rx="20" fill="#FFFFFF" stroke="#E7DECF"/>
  <text x="276" y="188" fill="#0F766E" font-family="Segoe UI, Arial, sans-serif" font-size="16" font-weight="600">Matrix space</text>
  <text x="276" y="220" fill="#1F2937" font-family="Segoe UI, Arial, sans-serif" font-size="28" font-weight="700">1560 pairs</text>

  <rect x="432" y="156" width="200" height="78" rx="20" fill="#FFFFFF" stroke="#E7DECF"/>
  <text x="456" y="188" fill="#0F766E" font-family="Segoe UI, Arial, sans-serif" font-size="16" font-weight="600">Validation layer</text>
  <text x="456" y="220" fill="#1F2937" font-family="Segoe UI, Arial, sans-serif" font-size="28" font-weight="700">search + quick checks</text>

  <rect x="648" y="156" width="164" height="78" rx="20" fill="#FFFFFF" stroke="#E7DECF"/>
  <text x="672" y="188" fill="#0F766E" font-family="Segoe UI, Arial, sans-serif" font-size="16" font-weight="600">Shortlist</text>
  <text x="672" y="220" fill="#1F2937" font-family="Segoe UI, Arial, sans-serif" font-size="28" font-weight="700">~15 ideas</text>

  <rect x="72" y="264" width="746" height="492" rx="26" fill="#FFFDFC" stroke="#E7DECF"/>
  <text x="104" y="308" fill="#1F2937" font-family="Segoe UI, Arial, sans-serif" font-size="24" font-weight="700">Scored Combination Heatmap</text>
  <text x="104" y="338" fill="#66707C" font-family="Segoe UI, Arial, sans-serif" font-size="16">Excerpt from the full directional review matrix. Diagonal cells are masked self-pairs.</text>

  <text x="214" y="384" fill="#66707C" font-family="Consolas, monospace" font-size="16" font-weight="700">P01</text>
  <text x="262" y="384" fill="#66707C" font-family="Consolas, monospace" font-size="16" font-weight="700">P02</text>
  <text x="310" y="384" fill="#66707C" font-family="Consolas, monospace" font-size="16" font-weight="700">P03</text>
  <text x="358" y="384" fill="#66707C" font-family="Consolas, monospace" font-size="16" font-weight="700">P04</text>
  <text x="406" y="384" fill="#66707C" font-family="Consolas, monospace" font-size="16" font-weight="700">P05</text>
  <text x="454" y="384" fill="#66707C" font-family="Consolas, monospace" font-size="16" font-weight="700">P06</text>
  <text x="502" y="384" fill="#66707C" font-family="Consolas, monospace" font-size="16" font-weight="700">P07</text>
  <text x="550" y="384" fill="#66707C" font-family="Consolas, monospace" font-size="16" font-weight="700">P08</text>

  <text x="136" y="428" fill="#66707C" font-family="Consolas, monospace" font-size="16" font-weight="700">P01</text>
  <text x="136" y="476" fill="#66707C" font-family="Consolas, monospace" font-size="16" font-weight="700">P02</text>
  <text x="136" y="524" fill="#66707C" font-family="Consolas, monospace" font-size="16" font-weight="700">P03</text>
  <text x="136" y="572" fill="#66707C" font-family="Consolas, monospace" font-size="16" font-weight="700">P04</text>
  <text x="136" y="620" fill="#66707C" font-family="Consolas, monospace" font-size="16" font-weight="700">P05</text>
  <text x="136" y="668" fill="#66707C" font-family="Consolas, monospace" font-size="16" font-weight="700">P06</text>
  <text x="136" y="716" fill="#66707C" font-family="Consolas, monospace" font-size="16" font-weight="700">P07</text>
  <text x="136" y="764" fill="#66707C" font-family="Consolas, monospace" font-size="16" font-weight="700">P08</text>

  <rect x="196" y="400" width="40" height="40" rx="10" fill="#D7D3CC"/>
  <rect x="244" y="400" width="40" height="40" rx="10" fill="#EAF5F2"/>
  <rect x="292" y="400" width="40" height="40" rx="10" fill="#BEE4DC"/>
  <rect x="340" y="400" width="40" height="40" rx="10" fill="#EAF5F2"/>
  <rect x="388" y="400" width="40" height="40" rx="10" fill="#0F766E"/>
  <rect x="436" y="400" width="40" height="40" rx="10" fill="#BEE4DC"/>
  <rect x="484" y="400" width="40" height="40" rx="10" fill="#EAF5F2"/>
  <rect x="532" y="400" width="40" height="40" rx="10" fill="#72C6B5"/>

  <rect x="196" y="448" width="40" height="40" rx="10" fill="#BEE4DC"/>
  <rect x="244" y="448" width="40" height="40" rx="10" fill="#D7D3CC"/>
  <rect x="292" y="448" width="40" height="40" rx="10" fill="#EAF5F2"/>
  <rect x="340" y="448" width="40" height="40" rx="10" fill="#72C6B5"/>
  <rect x="388" y="448" width="40" height="40" rx="10" fill="#0F766E" stroke="#C0841A" stroke-width="3"/>
  <rect x="436" y="448" width="40" height="40" rx="10" fill="#EAF5F2"/>
  <rect x="484" y="448" width="40" height="40" rx="10" fill="#BEE4DC"/>
  <rect x="532" y="448" width="40" height="40" rx="10" fill="#0F766E"/>

  <rect x="196" y="496" width="40" height="40" rx="10" fill="#EAF5F2"/>
  <rect x="244" y="496" width="40" height="40" rx="10" fill="#BEE4DC"/>
  <rect x="292" y="496" width="40" height="40" rx="10" fill="#D7D3CC"/>
  <rect x="340" y="496" width="40" height="40" rx="10" fill="#BEE4DC"/>
  <rect x="388" y="496" width="40" height="40" rx="10" fill="#EAF5F2"/>
  <rect x="436" y="496" width="40" height="40" rx="10" fill="#72C6B5"/>
  <rect x="484" y="496" width="40" height="40" rx="10" fill="#0F766E"/>
  <rect x="532" y="496" width="40" height="40" rx="10" fill="#EAF5F2"/>

  <rect x="196" y="544" width="40" height="40" rx="10" fill="#BEE4DC"/>
  <rect x="244" y="544" width="40" height="40" rx="10" fill="#EAF5F2"/>
  <rect x="292" y="544" width="40" height="40" rx="10" fill="#72C6B5"/>
  <rect x="340" y="544" width="40" height="40" rx="10" fill="#D7D3CC"/>
  <rect x="388" y="544" width="40" height="40" rx="10" fill="#0F766E"/>
  <rect x="436" y="544" width="40" height="40" rx="10" fill="#EAF5F2"/>
  <rect x="484" y="544" width="40" height="40" rx="10" fill="#BEE4DC"/>
  <rect x="532" y="544" width="40" height="40" rx="10" fill="#72C6B5"/>

  <rect x="196" y="592" width="40" height="40" rx="10" fill="#0F766E" stroke="#C0841A" stroke-width="3"/>
  <rect x="244" y="592" width="40" height="40" rx="10" fill="#BEE4DC"/>
  <rect x="292" y="592" width="40" height="40" rx="10" fill="#EAF5F2"/>
  <rect x="340" y="592" width="40" height="40" rx="10" fill="#72C6B5"/>
  <rect x="388" y="592" width="40" height="40" rx="10" fill="#D7D3CC"/>
  <rect x="436" y="592" width="40" height="40" rx="10" fill="#0F766E"/>
  <rect x="484" y="592" width="40" height="40" rx="10" fill="#BEE4DC"/>
  <rect x="532" y="592" width="40" height="40" rx="10" fill="#EAF5F2"/>

  <rect x="196" y="640" width="40" height="40" rx="10" fill="#EAF5F2"/>
  <rect x="244" y="640" width="40" height="40" rx="10" fill="#0F766E"/>
  <rect x="292" y="640" width="40" height="40" rx="10" fill="#BEE4DC"/>
  <rect x="340" y="640" width="40" height="40" rx="10" fill="#EAF5F2"/>
  <rect x="388" y="640" width="40" height="40" rx="10" fill="#72C6B5"/>
  <rect x="436" y="640" width="40" height="40" rx="10" fill="#D7D3CC"/>
  <rect x="484" y="640" width="40" height="40" rx="10" fill="#0F766E"/>
  <rect x="532" y="640" width="40" height="40" rx="10" fill="#BEE4DC"/>

  <rect x="196" y="688" width="40" height="40" rx="10" fill="#BEE4DC"/>
  <rect x="244" y="688" width="40" height="40" rx="10" fill="#EAF5F2"/>
  <rect x="292" y="688" width="40" height="40" rx="10" fill="#0F766E"/>
  <rect x="340" y="688" width="40" height="40" rx="10" fill="#BEE4DC"/>
  <rect x="388" y="688" width="40" height="40" rx="10" fill="#EAF5F2"/>
  <rect x="436" y="688" width="40" height="40" rx="10" fill="#72C6B5"/>
  <rect x="484" y="688" width="40" height="40" rx="10" fill="#D7D3CC"/>
  <rect x="532" y="688" width="40" height="40" rx="10" fill="#0F766E" stroke="#C0841A" stroke-width="3"/>

  <rect x="196" y="736" width="40" height="40" rx="10" fill="#72C6B5"/>
  <rect x="244" y="736" width="40" height="40" rx="10" fill="#BEE4DC"/>
  <rect x="292" y="736" width="40" height="40" rx="10" fill="#EAF5F2"/>
  <rect x="340" y="736" width="40" height="40" rx="10" fill="#0F766E"/>
  <rect x="388" y="736" width="40" height="40" rx="10" fill="#BEE4DC"/>
  <rect x="436" y="736" width="40" height="40" rx="10" fill="#EAF5F2"/>
  <rect x="484" y="736" width="40" height="40" rx="10" fill="#72C6B5"/>
  <rect x="532" y="736" width="40" height="40" rx="10" fill="#D7D3CC"/>

  <text x="104" y="722" fill="#66707C" font-family="Segoe UI, Arial, sans-serif" font-size="15">Darker cells indicate stronger A+B potential after search-backed screening.</text>

  <rect x="846" y="264" width="362" height="492" rx="26" fill="#FFFDFC" stroke="#E7DECF"/>
  <text x="878" y="308" fill="#1F2937" font-family="Segoe UI, Arial, sans-serif" font-size="24" font-weight="700">How to read this</text>
  <circle cx="888" cy="344" r="6" fill="#0F766E"/>
  <text x="906" y="349" fill="#586270" font-family="Segoe UI, Arial, sans-serif" font-size="16">Each row-column cell is a directional paper pair.</text>
  <circle cx="888" cy="380" r="6" fill="#0F766E"/>
  <text x="906" y="385" fill="#586270" font-family="Segoe UI, Arial, sans-serif" font-size="16">Self-pairs on the diagonal are removed from consideration.</text>
  <circle cx="888" cy="416" r="6" fill="#0F766E"/>
  <text x="906" y="421" fill="#586270" font-family="Segoe UI, Arial, sans-serif" font-size="16">Gold-outlined cells are shortlist candidates after validation.</text>

  <text x="878" y="470" fill="#1F2937" font-family="Segoe UI, Arial, sans-serif" font-size="18" font-weight="700">Score legend</text>
  <rect x="878" y="488" width="220" height="16" rx="8" fill="url(#legend-en)"/>
  <text x="878" y="528" fill="#586270" font-family="Segoe UI, Arial, sans-serif" font-size="14">low evidence fit</text>
  <text x="1048" y="528" fill="#586270" font-family="Segoe UI, Arial, sans-serif" font-size="14">strong fit</text>

  <text x="878" y="578" fill="#1F2937" font-family="Segoe UI, Arial, sans-serif" font-size="18" font-weight="700">Paper index</text>
  <text x="878" y="606" fill="#586270" font-family="Segoe UI, Arial, sans-serif" font-size="15">P01 Sparse routing</text>
  <text x="878" y="630" fill="#586270" font-family="Segoe UI, Arial, sans-serif" font-size="15">P02 Verifier head</text>
  <text x="878" y="654" fill="#586270" font-family="Segoe UI, Arial, sans-serif" font-size="15">P03 External memory</text>
  <text x="878" y="678" fill="#586270" font-family="Segoe UI, Arial, sans-serif" font-size="15">P04 Retrieval feedback</text>
  <text x="1042" y="606" fill="#586270" font-family="Segoe UI, Arial, sans-serif" font-size="15">P05 Tool controller</text>
  <text x="1042" y="630" fill="#586270" font-family="Segoe UI, Arial, sans-serif" font-size="15">P06 Context compression</text>
  <text x="1042" y="654" fill="#586270" font-family="Segoe UI, Arial, sans-serif" font-size="15">P07 Graph reasoning</text>
  <text x="1042" y="678" fill="#586270" font-family="Segoe UI, Arial, sans-serif" font-size="15">P08 Test-time search</text>

  <text x="878" y="722" fill="#1F2937" font-family="Segoe UI, Arial, sans-serif" font-size="18" font-weight="700">Shortlist snapshot</text>
  <text x="878" y="748" fill="#0F766E" font-family="Consolas, monospace" font-size="15" font-weight="700">1. P02 + P05   score 0.92</text>
  <text x="878" y="770" fill="#0F766E" font-family="Consolas, monospace" font-size="15" font-weight="700">2. P05 + P01   score 0.89</text>
  <text x="1042" y="748" fill="#0F766E" font-family="Consolas, monospace" font-size="15" font-weight="700">3. P07 + P08   score 0.87</text>
  <text x="1042" y="770" fill="#586270" font-family="Segoe UI, Arial, sans-serif" font-size="14">validated with search + quick checks</text>
</svg>
